# xmcd
# 
# Track frame offsets:
#     150
#     8590
#     19794
#     38247
#     52170
#     70505
#     84425
#     100765
#     123725
#     138845
#     153290
#     178102
#     193335
#     206615
#     223287
#     235475
#     249750
# 
# Disc length: 3598
# 
# Revision: 2
# Processed by: cddbd v1.5.1PL0 Copyright (c) Steve Scherf et al.
# Submitted via: BonkEnc v1.0beta3
# 
DISCID=eb0e0c11
DTITLE=Arne Domnerus - Best of Dompan
DYEAR=2004
DGENRE=Jazz
TTITLE0=Karl-Bertil Jonssons julafton
TTITLE1=More Than You Know
TTITLE2=The Midnight Sun Never Sets
TTITLE3=Topsy Theme
TTITLE4=When Or When
TTITLE5=Rockin' Chair
TTITLE6=Broadway
TTITLE7=Boogie Stop Shuffle
TTITLE8=Melancholy Lullaby
TTITLE9=Serenade To Yrolaine
TTITLE10=Jump For Joy
TTITLE11=As Time Goes By
TTITLE12=Just A-Sittin' And A-rockin'
TTITLE13=Mox Nix
TTITLE14=All The Things You Are
TTITLE15=Body And Soul
TTITLE16=Struttin' With Some Barbecue
EXTD=YEAR: 2004
EXTT0=
EXTT1=
EXTT2=
EXTT3=
EXTT4=
EXTT5=
EXTT6=
EXTT7=
EXTT8=
EXTT9=
EXTT10=
EXTT11=
EXTT12=
EXTT13=
EXTT14=
EXTT15=
EXTT16=
PLAYORDER=
